<svg width="19" height="18" viewBox="0 0 19 18" fill="none" xmlns="http://www.w3.org/2000/svg">
<path d="M8.6824 13.9705C7.53622 13.2604 5.55238 11.5456 5.51013 11.5825C4.45811 12.435 3.3483 13.2106 2.189 13.9034C1.49656 14.3109 0.791589 14.4125 0.35723 13.8096C0.279597 13.6979 0.224854 13.5714 0.196277 13.4376C0.167699 13.3039 0.165875 13.1656 0.190913 13.0311C0.215952 12.8966 0.267337 12.7686 0.341996 12.6548C0.416655 12.541 0.513052 12.4438 0.62542 12.3688C0.633992 12.3648 3.08702 10.7332 3.90507 10.012C2.94777 8.95094 2.18668 7.72191 1.65862 6.38434C1.55701 6.12523 1.55521 5.83651 1.65358 5.57609C1.75194 5.31568 1.9432 5.10282 2.189 4.98021C2.71937 4.75235 3.24441 4.85026 3.68472 5.61631C4.12733 6.70305 4.74423 7.70706 5.51011 8.58719C6.55407 7.28638 7.29576 5.76141 7.67959 4.12661L0 4.10457V2.04524H4.84182V1.02519C4.84004 0.891214 4.86438 0.758217 4.91342 0.633918C4.96246 0.509619 5.03522 0.396495 5.12748 0.301116C5.21975 0.205736 5.32967 0.130002 5.45087 0.0783104C5.57206 0.0266188 5.70212 0 5.83349 0C5.96486 0 6.09492 0.0266188 6.21612 0.0783104C6.33731 0.130002 6.44724 0.205736 6.5395 0.301116C6.63176 0.396495 6.70452 0.509619 6.75356 0.633918C6.8026 0.758217 6.82694 0.891214 6.82517 1.02519V2.04524H12.0271V4.10457H9.92786C9.41203 6.22576 8.51087 8.22952 7.27106 10.012C7.99151 10.6494 8.76645 11.2197 9.58662 11.7161L11.9099 5.90177C11.9943 5.67369 12.1452 5.47746 12.3423 5.33954C12.5394 5.20162 12.7733 5.12863 13.0123 5.13041C13.2513 5.13219 13.484 5.20865 13.6791 5.34949C13.8743 5.49033 14.0223 5.68878 14.1035 5.9181L17.1323 13.5003L19 18H16.511L15.4218 15.3944H10.5514L9.65798 18H7.04279L7.33154 17.2903L8.6824 13.9705ZM13.0218 8.66825L11.3363 13.3415H14.7074L13.0218 8.66825Z" fill="white"/>
</svg>
